ISO-10303-21;
HEADER;
/*Generated by software containing ST-Developer
 * from STEP Tools, Inc. (www.steptools.com) 
 */
/*OPTION: using custom renumber hook */
/*description */
/*implementation_level */
FILE_DESCRIPTION(('STEP AP242 Edition 2','STEP AP242 Edition 2''CAx-IF Rec.Pracs.---Representation and Presentation of Product Manufa
cturing Information (PMI)---4.0---2014-10-13','STEP AP242 Edition 2''CAx-IF Rec.Pracs.---Representation and Presentation of Product Manufa
cturing Information (PMI)---4.0---2014-10-13''CAx-IF Rec.Pracs.---3D Tessellated Geometry---0.4---2014-09-14','STEP AP242 Edition 2''CAx-IF Rec.Pracs.---Representation and Presentation of Product Manufa
cturing Information (PMI)---4.0---2014-10-13''CAx-IF Rec.Pracs.---3D Tessellated Geometry---0.4---2014-09-14''2;1','STEP AP242 Edition 2''CAx-IF Rec.Pracs.---Representation and Presentation of Product Manufa
cturing Information (PMI)---4.0---2014-10-13''CAx-IF Rec.Pracs.---3D Tessellated Geometry---0.4---2014-09-14''2;1''CAx-IF Rec.Pracs.---User Defined Attributes---1.5---2016-08-15'),'2;1');
/*name */
/*time_stamp */
/*author */
/*organization */
/*preprocessor_version */
/*originating_system */
/*authorisation */
FILE_NAME('/vol/tmp/translate-4383345825511120342/Part Studio 1.step','2026-03-20T00:27:40',(''),(''),'ST-DEVELOPER v20','ONSHAPE BY PTC INC, 1.212','  ');
FILE_SCHEMA(('AP242_MANAGED_MODEL_BASED_3D_ENGINEERING_MIM_LF { 1 0 10303 442 3 1 4 }'));
ENDSEC;
DATA;
#10=SHAPE_REPRESENTATION_RELATIONSHIP('','',#307,#11);
#11=ADVANCED_BREP_SHAPE_REPRESENTATION('',(#305),#606);
#12=(
B_SPLINE_SURFACE(3,2,((#566,#567,#568),(#569,#570,#571),(#572,#573,#574),(#575,#576,#577),(#578,#579,#580),(#581,#582,#583),(#584,#585,#586),(#587,
#588,#589),(#590,#591,#592),(#593,#594,#595),(#596,#597,#598),(#599,#600,
#601),(#602,#603,#604)),.UNSPECIFIED.,.T.,.F.,.F.)
B_SPLINE_SURFACE_WITH_KNOTS((1,3,1,1,1,1,1,1,1,1,1,3,1),(3,3),(-0.00204280908241667,0.,0.00102140454120834,0.00204280908241667,0.00408561816483335,0.00612842724725002,0.0081712363296667,0.00919264087087504,0.0102140454120834,0.0122568544945,0.0142996635769167,0.0163424726593334,0.0173638772005417),(0.,1.),.UNSPECIFIED.)
BOUNDED_SURFACE()
GEOMETRIC_REPRESENTATION_ITEM()
RATIONAL_B_SPLINE_SURFACE(((1.,0.700247938353037,1.),(1.,0.706988019114546,
1.),(1.,0.710465788935996,1.),(1.,0.679435228012259,1.),(1.,0.591270970843915,
1.),(1.,0.619778861029219,1.),(1.,0.703504628156089,1.),(1.,0.710473741445388,
1.),(1.,0.679428206267872,1.),(1.,0.591179083878952,1.),(1.,0.619797886977702,
1.),(1.,0.686767776830018,1.),(1.,0.700247938353037,1.)))
REPRESENTATION_ITEM('')
SURFACE()
);
#13=TOROIDAL_SURFACE('',#344,0.0026924,0.000635);
#14=TOROIDAL_SURFACE('',#345,0.0026924,0.000635);
#15=TOROIDAL_SURFACE('',#346,0.010795,0.000635);
#16=TOROIDAL_SURFACE('',#347,0.009525,0.000635);
#17=TOROIDAL_SURFACE('',#348,0.024765,0.000635);
#18=TOROIDAL_SURFACE('',#349,0.024765,0.000635);
#19=TOROIDAL_SURFACE('',#350,0.026035,0.000635);
#20=TOROIDAL_SURFACE('',#351,0.026035,0.000635);
#21=TOROIDAL_SURFACE('',#352,0.027305,0.000635);
#22=TOROIDAL_SURFACE('',#353,0.027305,0.000635);
#23=B_SPLINE_CURVE_WITH_KNOTS('',3,(#490,#491,#492,#493,#494,#495,#496,#497,#498,#499,#500),.UNSPECIFIED.,.T.,.F.,(1,1,1,1,1,1,1,1,1,1,1,1,1,1,1),(-0.0063369275019438,-0.0042246183346292,-0.0021123091673146,2.17401317721193E-19,0.0021123091673146,0.0042246183346292,0.0063369275019438,0.0084492366692584,0.010561545836573,0.0126738550038876,0.0147861641712022,0.0168984733385168,0.0190107825058314,0.021123091673146,0.0232354008404606),.UNSPECIFIED.);
#24=B_SPLINE_CURVE_WITH_KNOTS('',3,(#512,#513,#514,#515,#516,#517,#518,#519,#520,#521,#522),.UNSPECIFIED.,.T.,.F.,(1,1,1,1,1,1,1,1,1,1,1,1,1,1,1),(-0.00526642261178952,-0.00351094840785968,-0.00175547420392984,2.62601262382362E-20,0.00175547420392984,0.00351094840785968,0.00526642261178952,0.00702189681571936,0.0087773710196492,0.010532845223579,0.0122883194275089,0.0140437936314387,0.0157992678353686,0.0175547420392984,0.0193102162432282),.UNSPECIFIED.);
#25=B_SPLINE_CURVE_WITH_KNOTS('',3,(#524,#525,#526,#527,#528,#529,#530,#531,#532,#533,#534),.UNSPECIFIED.,.F.,.F.,(4,1,1,1,1,1,1,1,4),(0.,0.000889039953694336,0.00177807990738867,0.00266711986108301,0.00355615981477734,0.00444519976847168,0.00533423972216602,0.00622327967586035,0.00711231962955469),.UNSPECIFIED.);
#26=B_SPLINE_CURVE_WITH_KNOTS('',3,(#538,#539,#540,#541,#542,#543,#544,#545,#546,#547,#548),.UNSPECIFIED.,.F.,.F.,(4,1,1,1,1,1,1,1,4),(0.,0.000889039953694332,0.00177807990738866,0.00266711986108299,0.00355615981477733,0.00444519976847166,0.00533423972216599,0.00622327967586032,0.00711231962955465),.UNSPECIFIED.);
#27=CYLINDRICAL_SURFACE('',#311,0.02794);
#28=CYLINDRICAL_SURFACE('',#323,0.0254);
#29=CYLINDRICAL_SURFACE('',#326,0.0254);
#30=CYLINDRICAL_SURFACE('',#332,0.01016);
#31=CYLINDRICAL_SURFACE('',#338,0.0022225);
#32=CYLINDRICAL_SURFACE('',#341,0.0020574);
#33=LINE('',#453,#35);
#34=LINE('',#550,#36);
#35=VECTOR('',#360,1.);
#36=VECTOR('',#421,1.);
#37=ORIENTED_EDGE('',*,*,#93,.F.);
#38=ORIENTED_EDGE('',*,*,#94,.T.);
#39=ORIENTED_EDGE('',*,*,#95,.T.);
#40=ORIENTED_EDGE('',*,*,#96,.T.);
#41=ORIENTED_EDGE('',*,*,#97,.T.);
#42=ORIENTED_EDGE('',*,*,#98,.T.);
#43=ORIENTED_EDGE('',*,*,#99,.T.);
#44=ORIENTED_EDGE('',*,*,#100,.T.);
#45=ORIENTED_EDGE('',*,*,#101,.T.);
#46=ORIENTED_EDGE('',*,*,#102,.T.);
#47=ORIENTED_EDGE('',*,*,#103,.T.);
#48=ORIENTED_EDGE('',*,*,#104,.T.);
#49=ORIENTED_EDGE('',*,*,#105,.T.);
#50=ORIENTED_EDGE('',*,*,#106,.T.);
#51=ORIENTED_EDGE('',*,*,#107,.T.);
#52=ORIENTED_EDGE('',*,*,#108,.T.);
#53=ORIENTED_EDGE('',*,*,#109,.T.);
#54=ORIENTED_EDGE('',*,*,#110,.T.);
#55=ORIENTED_EDGE('',*,*,#111,.T.);
#56=ORIENTED_EDGE('',*,*,#112,.T.);
#57=ORIENTED_EDGE('',*,*,#113,.T.);
#58=ORIENTED_EDGE('',*,*,#114,.T.);
#59=ORIENTED_EDGE('',*,*,#93,.T.);
#60=ORIENTED_EDGE('',*,*,#115,.T.);
#61=ORIENTED_EDGE('',*,*,#116,.T.);
#62=ORIENTED_EDGE('',*,*,#117,.T.);
#63=ORIENTED_EDGE('',*,*,#116,.F.);
#64=ORIENTED_EDGE('',*,*,#118,.T.);
#65=ORIENTED_EDGE('',*,*,#119,.T.);
#66=ORIENTED_EDGE('',*,*,#120,.T.);
#67=ORIENTED_EDGE('',*,*,#117,.F.);
#68=ORIENTED_EDGE('',*,*,#118,.F.);
#69=ORIENTED_EDGE('',*,*,#115,.F.);
#70=ORIENTED_EDGE('',*,*,#94,.F.);
#71=ORIENTED_EDGE('',*,*,#119,.F.);
#72=ORIENTED_EDGE('',*,*,#101,.F.);
#73=ORIENTED_EDGE('',*,*,#112,.F.);
#74=ORIENTED_EDGE('',*,*,#120,.F.);
#75=ORIENTED_EDGE('',*,*,#107,.F.);
#76=ORIENTED_EDGE('',*,*,#110,.F.);
#77=ORIENTED_EDGE('',*,*,#111,.F.);
#78=ORIENTED_EDGE('',*,*,#113,.F.);
#79=ORIENTED_EDGE('',*,*,#102,.F.);
#80=ORIENTED_EDGE('',*,*,#103,.F.);
#81=ORIENTED_EDGE('',*,*,#105,.F.);
#82=ORIENTED_EDGE('',*,*,#108,.F.);
#83=ORIENTED_EDGE('',*,*,#106,.F.);
#84=ORIENTED_EDGE('',*,*,#97,.F.);
#85=ORIENTED_EDGE('',*,*,#99,.F.);
#86=ORIENTED_EDGE('',*,*,#104,.F.);
#87=ORIENTED_EDGE('',*,*,#100,.F.);
#88=ORIENTED_EDGE('',*,*,#95,.F.);
#89=ORIENTED_EDGE('',*,*,#96,.F.);
#90=ORIENTED_EDGE('',*,*,#98,.F.);
#91=ORIENTED_EDGE('',*,*,#114,.F.);
#92=ORIENTED_EDGE('',*,*,#109,.F.);
#93=EDGE_CURVE('',#121,#122,#147,.T.);
#94=EDGE_CURVE('',#121,#122,#33,.T.);
#95=EDGE_CURVE('',#123,#123,#148,.T.);
#96=EDGE_CURVE('',#124,#124,#149,.F.);
#97=EDGE_CURVE('',#125,#125,#150,.F.);
#98=EDGE_CURVE('',#126,#126,#151,.T.);
#99=EDGE_CURVE('',#127,#127,#152,.T.);
#100=EDGE_CURVE('',#128,#128,#153,.F.);
#101=EDGE_CURVE('',#129,#129,#154,.T.);
#102=EDGE_CURVE('',#130,#130,#155,.F.);
#103=EDGE_CURVE('',#131,#131,#156,.T.);
#104=EDGE_CURVE('',#132,#132,#157,.F.);
#105=EDGE_CURVE('',#133,#133,#158,.F.);
#106=EDGE_CURVE('',#134,#134,#159,.T.);
#107=EDGE_CURVE('',#135,#135,#160,.F.);
#108=EDGE_CURVE('',#136,#136,#161,.T.);
#109=EDGE_CURVE('',#137,#137,#23,.T.);
#110=EDGE_CURVE('',#138,#138,#162,.T.);
#111=EDGE_CURVE('',#139,#139,#163,.F.);
#112=EDGE_CURVE('',#140,#140,#164,.F.);
#113=EDGE_CURVE('',#141,#141,#165,.T.);
#114=EDGE_CURVE('',#142,#142,#24,.T.);
#115=EDGE_CURVE('',#122,#143,#25,.T.);
#116=EDGE_CURVE('',#143,#144,#166,.T.);
#117=EDGE_CURVE('',#144,#121,#26,.T.);
#118=EDGE_CURVE('',#143,#144,#34,.F.);
#119=EDGE_CURVE('',#145,#145,#167,.F.);
#120=EDGE_CURVE('',#146,#146,#168,.T.);
#121=VERTEX_POINT('',#451);
#122=VERTEX_POINT('',#452);
#123=VERTEX_POINT('',#456);
#124=VERTEX_POINT('',#458);
#125=VERTEX_POINT('',#461);
#126=VERTEX_POINT('',#463);
#127=VERTEX_POINT('',#466);
#128=VERTEX_POINT('',#468);
#129=VERTEX_POINT('',#471);
#130=VERTEX_POINT('',#473);
#131=VERTEX_POINT('',#476);
#132=VERTEX_POINT('',#478);
#133=VERTEX_POINT('',#481);
#134=VERTEX_POINT('',#483);
#135=VERTEX_POINT('',#486);
#136=VERTEX_POINT('',#488);
#137=VERTEX_POINT('',#501);
#138=VERTEX_POINT('',#503);
#139=VERTEX_POINT('',#505);
#140=VERTEX_POINT('',#508);
#141=VERTEX_POINT('',#510);
#142=VERTEX_POINT('',#523);
#143=VERTEX_POINT('',#535);
#144=VERTEX_POINT('',#537);
#145=VERTEX_POINT('',#553);
#146=VERTEX_POINT('',#555);
#147=CIRCLE('',#310,0.0022225);
#148=CIRCLE('',#312,0.02794);
#149=CIRCLE('',#313,0.02794);
#150=CIRCLE('',#315,0.026035);
#151=CIRCLE('',#316,0.027305);
#152=CIRCLE('',#318,0.026035);
#153=CIRCLE('',#319,0.027305);
#154=CIRCLE('',#321,0.0026924);
#155=CIRCLE('',#322,0.024765);
#156=CIRCLE('',#324,0.0254);
#157=CIRCLE('',#325,0.0254);
#158=CIRCLE('',#327,0.0254);
#159=CIRCLE('',#328,0.0254);
#160=CIRCLE('',#330,0.010795);
#161=CIRCLE('',#331,0.024765);
#162=CIRCLE('',#333,0.01016);
#163=CIRCLE('',#334,0.01016);
#164=CIRCLE('',#336,0.0026924);
#165=CIRCLE('',#337,0.009525);
#166=CIRCLE('',#339,0.0022225);
#167=CIRCLE('',#342,0.0020574);
#168=CIRCLE('',#343,0.0020574);
#169=EDGE_LOOP('',(#37,#38));
#170=EDGE_LOOP('',(#39));
#171=EDGE_LOOP('',(#40));
#172=EDGE_LOOP('',(#41));
#173=EDGE_LOOP('',(#42));
#174=EDGE_LOOP('',(#43));
#175=EDGE_LOOP('',(#44));
#176=EDGE_LOOP('',(#45));
#177=EDGE_LOOP('',(#46));
#178=EDGE_LOOP('',(#47));
#179=EDGE_LOOP('',(#48));
#180=EDGE_LOOP('',(#49));
#181=EDGE_LOOP('',(#50));
#182=EDGE_LOOP('',(#51));
#183=EDGE_LOOP('',(#52));
#184=EDGE_LOOP('',(#53));
#185=EDGE_LOOP('',(#54));
#186=EDGE_LOOP('',(#55));
#187=EDGE_LOOP('',(#56));
#188=EDGE_LOOP('',(#57));
#189=EDGE_LOOP('',(#58));
#190=EDGE_LOOP('',(#59,#60,#61,#62));
#191=EDGE_LOOP('',(#63,#64));
#192=EDGE_LOOP('',(#65));
#193=EDGE_LOOP('',(#66));
#194=EDGE_LOOP('',(#67,#68,#69,#70));
#195=EDGE_LOOP('',(#71));
#196=EDGE_LOOP('',(#72));
#197=EDGE_LOOP('',(#73));
#198=EDGE_LOOP('',(#74));
#199=EDGE_LOOP('',(#75));
#200=EDGE_LOOP('',(#76));
#201=EDGE_LOOP('',(#77));
#202=EDGE_LOOP('',(#78));
#203=EDGE_LOOP('',(#79));
#204=EDGE_LOOP('',(#80));
#205=EDGE_LOOP('',(#81));
#206=EDGE_LOOP('',(#82));
#207=EDGE_LOOP('',(#83));
#208=EDGE_LOOP('',(#84));
#209=EDGE_LOOP('',(#85));
#210=EDGE_LOOP('',(#86));
#211=EDGE_LOOP('',(#87));
#212=EDGE_LOOP('',(#88));
#213=EDGE_LOOP('',(#89));
#214=EDGE_LOOP('',(#90));
#215=EDGE_LOOP('',(#91));
#216=EDGE_LOOP('',(#92));
#217=FACE_BOUND('',#169,.T.);
#218=FACE_BOUND('',#170,.T.);
#219=FACE_BOUND('',#171,.T.);
#220=FACE_BOUND('',#172,.T.);
#221=FACE_BOUND('',#173,.T.);
#222=FACE_BOUND('',#174,.T.);
#223=FACE_BOUND('',#175,.T.);
#224=FACE_BOUND('',#176,.T.);
#225=FACE_BOUND('',#177,.T.);
#226=FACE_BOUND('',#178,.T.);
#227=FACE_BOUND('',#179,.T.);
#228=FACE_BOUND('',#180,.T.);
#229=FACE_BOUND('',#181,.T.);
#230=FACE_BOUND('',#182,.T.);
#231=FACE_BOUND('',#183,.T.);
#232=FACE_BOUND('',#184,.T.);
#233=FACE_BOUND('',#185,.T.);
#234=FACE_BOUND('',#186,.T.);
#235=FACE_BOUND('',#187,.T.);
#236=FACE_BOUND('',#188,.T.);
#237=FACE_BOUND('',#189,.T.);
#238=FACE_BOUND('',#190,.T.);
#239=FACE_BOUND('',#191,.T.);
#240=FACE_BOUND('',#192,.T.);
#241=FACE_BOUND('',#193,.T.);
#242=FACE_BOUND('',#194,.T.);
#243=FACE_BOUND('',#195,.T.);
#244=FACE_BOUND('',#196,.T.);
#245=FACE_BOUND('',#197,.T.);
#246=FACE_BOUND('',#198,.T.);
#247=FACE_BOUND('',#199,.T.);
#248=FACE_BOUND('',#200,.T.);
#249=FACE_BOUND('',#201,.T.);
#250=FACE_BOUND('',#202,.T.);
#251=FACE_BOUND('',#203,.T.);
#252=FACE_BOUND('',#204,.T.);
#253=FACE_BOUND('',#205,.T.);
#254=FACE_BOUND('',#206,.T.);
#255=FACE_BOUND('',#207,.T.);
#256=FACE_BOUND('',#208,.T.);
#257=FACE_BOUND('',#209,.T.);
#258=FACE_BOUND('',#210,.T.);
#259=FACE_BOUND('',#211,.T.);
#260=FACE_BOUND('',#212,.T.);
#261=FACE_BOUND('',#213,.T.);
#262=FACE_BOUND('',#214,.T.);
#263=FACE_BOUND('',#215,.T.);
#264=FACE_BOUND('',#216,.T.);
#265=PLANE('',#309);
#266=PLANE('',#314);
#267=PLANE('',#317);
#268=PLANE('',#320);
#269=PLANE('',#329);
#270=PLANE('',#335);
#271=PLANE('',#340);
#272=ADVANCED_FACE('',(#217),#265,.F.);
#273=ADVANCED_FACE('',(#218,#219),#27,.T.);
#274=ADVANCED_FACE('',(#220,#221),#266,.T.);
#275=ADVANCED_FACE('',(#222,#223),#267,.F.);
#276=ADVANCED_FACE('',(#224,#225),#268,.F.);
#277=ADVANCED_FACE('',(#226,#227),#28,.T.);
#278=ADVANCED_FACE('',(#228,#229),#29,.T.);
#279=ADVANCED_FACE('',(#230,#231),#269,.T.);
#280=ADVANCED_FACE('',(#232,#233,#234),#30,.T.);
#281=ADVANCED_FACE('',(#235,#236),#270,.T.);
#282=ADVANCED_FACE('',(#237,#238),#31,.F.);
#283=ADVANCED_FACE('',(#239),#271,.F.);
#284=ADVANCED_FACE('',(#240,#241,#242),#32,.F.);
#285=ADVANCED_FACE('',(#243,#244),#13,.T.);
#286=ADVANCED_FACE('',(#245,#246),#14,.T.);
#287=ADVANCED_FACE('',(#247,#248),#15,.F.);
#288=ADVANCED_FACE('',(#249,#250),#16,.T.);
#289=ADVANCED_FACE('',(#251,#252),#17,.T.);
#290=ADVANCED_FACE('',(#253,#254),#18,.T.);
#291=ADVANCED_FACE('',(#255,#256),#19,.F.);
#292=ADVANCED_FACE('',(#257,#258),#20,.F.);
#293=ADVANCED_FACE('',(#259,#260),#21,.T.);
#294=ADVANCED_FACE('',(#261,#262),#22,.T.);
#295=ADVANCED_FACE('',(#263,#264),#12,.T.);
#296=CLOSED_SHELL('',(#272,#273,#274,#275,#276,#277,#278,#279,#280,#281,#282,#283,#284,#285,#286,#287,#288,#289,#290,#291,#292,#293,#294,#295));
#297=STYLED_ITEM('',(#298),#305);
#298=PRESENTATION_STYLE_ASSIGNMENT((#299));
#299=SURFACE_STYLE_USAGE(.BOTH.,#300);
#300=SURFACE_SIDE_STYLE('',(#301));
#301=SURFACE_STYLE_FILL_AREA(#302);
#302=FILL_AREA_STYLE('',(#303));
#303=FILL_AREA_STYLE_COLOUR('',#304);
#304=COLOUR_RGB('',0.615686274509804,0.811764705882353,0.929411764705882);
#305=MANIFOLD_SOLID_BREP('Part 1',#296);
#306=SHAPE_DEFINITION_REPRESENTATION(#611,#307);
#307=SHAPE_REPRESENTATION('Part 1',(#308),#606);
#308=AXIS2_PLACEMENT_3D('',#448,#354,#355);
#309=AXIS2_PLACEMENT_3D('',#449,#356,#357);
#310=AXIS2_PLACEMENT_3D('',#450,#358,#359);
#311=AXIS2_PLACEMENT_3D('',#454,#361,#362);
#312=AXIS2_PLACEMENT_3D('',#455,#363,#364);
#313=AXIS2_PLACEMENT_3D('',#457,#365,#366);
#314=AXIS2_PLACEMENT_3D('',#459,#367,#368);
#315=AXIS2_PLACEMENT_3D('',#460,#369,#370);
#316=AXIS2_PLACEMENT_3D('',#462,#371,#372);
#317=AXIS2_PLACEMENT_3D('',#464,#373,#374);
#318=AXIS2_PLACEMENT_3D('',#465,#375,#376);
#319=AXIS2_PLACEMENT_3D('',#467,#377,#378);
#320=AXIS2_PLACEMENT_3D('',#469,#379,#380);
#321=AXIS2_PLACEMENT_3D('',#470,#381,#382);
#322=AXIS2_PLACEMENT_3D('',#472,#383,#384);
#323=AXIS2_PLACEMENT_3D('',#474,#385,#386);
#324=AXIS2_PLACEMENT_3D('',#475,#387,#388);
#325=AXIS2_PLACEMENT_3D('',#477,#389,#390);
#326=AXIS2_PLACEMENT_3D('',#479,#391,#392);
#327=AXIS2_PLACEMENT_3D('',#480,#393,#394);
#328=AXIS2_PLACEMENT_3D('',#482,#395,#396);
#329=AXIS2_PLACEMENT_3D('',#484,#397,#398);
#330=AXIS2_PLACEMENT_3D('',#485,#399,#400);
#331=AXIS2_PLACEMENT_3D('',#487,#401,#402);
#332=AXIS2_PLACEMENT_3D('',#489,#403,#404);
#333=AXIS2_PLACEMENT_3D('',#502,#405,#406);
#334=AXIS2_PLACEMENT_3D('',#504,#407,#408);
#335=AXIS2_PLACEMENT_3D('',#506,#409,#410);
#336=AXIS2_PLACEMENT_3D('',#507,#411,#412);
#337=AXIS2_PLACEMENT_3D('',#509,#413,#414);
#338=AXIS2_PLACEMENT_3D('',#511,#415,#416);
#339=AXIS2_PLACEMENT_3D('',#536,#417,#418);
#340=AXIS2_PLACEMENT_3D('',#549,#419,#420);
#341=AXIS2_PLACEMENT_3D('',#551,#422,#423);
#342=AXIS2_PLACEMENT_3D('',#552,#424,#425);
#343=AXIS2_PLACEMENT_3D('',#554,#426,#427);
#344=AXIS2_PLACEMENT_3D('',#556,#428,#429);
#345=AXIS2_PLACEMENT_3D('',#557,#430,#431);
#346=AXIS2_PLACEMENT_3D('',#558,#432,#433);
#347=AXIS2_PLACEMENT_3D('',#559,#434,#435);
#348=AXIS2_PLACEMENT_3D('',#560,#436,#437);
#349=AXIS2_PLACEMENT_3D('',#561,#438,#439);
#350=AXIS2_PLACEMENT_3D('',#562,#440,#441);
#351=AXIS2_PLACEMENT_3D('',#563,#442,#443);
#352=AXIS2_PLACEMENT_3D('',#564,#444,#445);
#353=AXIS2_PLACEMENT_3D('',#565,#446,#447);
#354=DIRECTION('',(0.,0.,1.));
#355=DIRECTION('',(1.,0.,0.));
#356=DIRECTION('',(0.,-1.,0.));
#357=DIRECTION('',(1.,0.,0.));
#358=DIRECTION('',(0.,-1.,0.));
#359=DIRECTION('',(0.,0.,-1.));
#360=DIRECTION('',(0.,0.,1.));
#361=DIRECTION('',(0.,0.,-1.));
#362=DIRECTION('',(-1.,0.,0.));
#363=DIRECTION('',(0.,0.,1.));
#364=DIRECTION('',(1.,0.,0.));
#365=DIRECTION('',(0.,0.,1.));
#366=DIRECTION('',(1.,0.,0.));
#367=DIRECTION('',(0.,0.,1.));
#368=DIRECTION('',(1.,0.,0.));
#369=DIRECTION('',(0.,0.,1.));
#370=DIRECTION('',(1.,0.,0.));
#371=DIRECTION('',(0.,0.,1.));
#372=DIRECTION('',(1.,0.,0.));
#373=DIRECTION('',(0.,0.,1.));
#374=DIRECTION('',(1.,0.,0.));
#375=DIRECTION('',(0.,0.,1.));
#376=DIRECTION('',(1.,0.,0.));
#377=DIRECTION('',(0.,0.,1.));
#378=DIRECTION('',(1.,0.,0.));
#379=DIRECTION('',(0.,0.,1.));
#380=DIRECTION('',(1.,0.,0.));
#381=DIRECTION('',(0.,0.,1.));
#382=DIRECTION('',(1.,0.,0.));
#383=DIRECTION('',(0.,0.,1.));
#384=DIRECTION('',(1.,0.,0.));
#385=DIRECTION('',(0.,0.,-1.));
#386=DIRECTION('',(-1.,0.,0.));
#387=DIRECTION('',(0.,0.,1.));
#388=DIRECTION('',(1.,0.,0.));
#389=DIRECTION('',(0.,0.,1.));
#390=DIRECTION('',(1.,0.,0.));
#391=DIRECTION('',(0.,0.,-1.));
#392=DIRECTION('',(-1.,0.,0.));
#393=DIRECTION('',(0.,0.,1.));
#394=DIRECTION('',(1.,0.,0.));
#395=DIRECTION('',(0.,0.,1.));
#396=DIRECTION('',(1.,0.,0.));
#397=DIRECTION('',(0.,0.,1.));
#398=DIRECTION('',(1.,0.,0.));
#399=DIRECTION('',(0.,0.,1.));
#400=DIRECTION('',(1.,0.,0.));
#401=DIRECTION('',(0.,0.,1.));
#402=DIRECTION('',(1.,0.,0.));
#403=DIRECTION('',(0.,0.,-1.));
#404=DIRECTION('',(-1.,0.,0.));
#405=DIRECTION('',(0.,0.,1.));
#406=DIRECTION('',(1.,0.,0.));
#407=DIRECTION('',(0.,0.,1.));
#408=DIRECTION('',(1.,0.,0.));
#409=DIRECTION('',(0.,0.,1.));
#410=DIRECTION('',(1.,0.,0.));
#411=DIRECTION('',(0.,0.,1.));
#412=DIRECTION('',(1.,0.,0.));
#413=DIRECTION('',(0.,0.,1.));
#414=DIRECTION('',(1.,0.,0.));
#415=DIRECTION('',(0.,-1.,0.));
#416=DIRECTION('',(0.,0.,-1.));
#417=DIRECTION('',(0.,-1.,0.));
#418=DIRECTION('',(0.,0.,-1.));
#419=DIRECTION('',(0.,-1.,0.));
#420=DIRECTION('',(1.,0.,0.));
#421=DIRECTION('',(0.,0.,1.));
#422=DIRECTION('',(0.,0.,1.));
#423=DIRECTION('',(1.,0.,0.));
#424=DIRECTION('',(0.,0.,1.));
#425=DIRECTION('',(1.,0.,0.));
#426=DIRECTION('',(0.,0.,1.));
#427=DIRECTION('',(1.,0.,0.));
#428=DIRECTION('',(0.,0.,1.));
#429=DIRECTION('',(1.,0.,0.));
#430=DIRECTION('',(0.,0.,1.));
#431=DIRECTION('',(1.,0.,0.));
#432=DIRECTION('',(0.,0.,1.));
#433=DIRECTION('',(1.,0.,0.));
#434=DIRECTION('',(0.,0.,1.));
#435=DIRECTION('',(1.,0.,0.));
#436=DIRECTION('',(0.,0.,1.));
#437=DIRECTION('',(1.,0.,0.));
#438=DIRECTION('',(0.,0.,1.));
#439=DIRECTION('',(1.,0.,0.));
#440=DIRECTION('',(0.,0.,1.));
#441=DIRECTION('',(1.,0.,0.));
#442=DIRECTION('',(0.,0.,1.));
#443=DIRECTION('',(1.,0.,0.));
#444=DIRECTION('',(0.,0.,1.));
#445=DIRECTION('',(1.,0.,0.));
#446=DIRECTION('',(0.,0.,1.));
#447=DIRECTION('',(1.,0.,0.));
#448=CARTESIAN_POINT('',(0.,0.,0.));
#449=CARTESIAN_POINT('',(0.,0.,0.0073914));
#450=CARTESIAN_POINT('',(0.,0.,0.0073914));
#451=CARTESIAN_POINT('',(0.0020574,0.,0.00655079813823666));
#452=CARTESIAN_POINT('',(0.0020574,0.,0.00823200186176334));
#453=CARTESIAN_POINT('',(0.0020574,0.,-0.0127));
#454=CARTESIAN_POINT('',(0.,1.71083157840886E-18,0.002413));
#455=CARTESIAN_POINT('',(0.,1.71083157840886E-18,-0.001778));
#456=CARTESIAN_POINT('',(0.02794,1.71083157840886E-18,-0.001778));
#457=CARTESIAN_POINT('',(0.,1.71083157840886E-18,0.001778));
#458=CARTESIAN_POINT('',(0.02794,1.71083157840886E-18,0.001778));
#459=CARTESIAN_POINT('',(0.,0.,0.002413));
#460=CARTESIAN_POINT('',(0.,1.55530143491714E-18,0.002413));
#461=CARTESIAN_POINT('',(0.026035,1.55530143491714E-18,0.002413));
#462=CARTESIAN_POINT('',(0.,1.71083157840886E-18,0.002413));
#463=CARTESIAN_POINT('',(0.027305,1.71083157840886E-18,0.002413));
#464=CARTESIAN_POINT('',(0.,0.,-0.002413));
#465=CARTESIAN_POINT('',(0.,1.55530143491714E-18,-0.002413));
#466=CARTESIAN_POINT('',(0.026035,1.55530143491714E-18,-0.002413));
#467=CARTESIAN_POINT('',(0.,1.71083157840886E-18,-0.002413));
#468=CARTESIAN_POINT('',(0.027305,1.71083157840886E-18,-0.002413));
#469=CARTESIAN_POINT('',(0.,0.,-0.0039624));
#470=CARTESIAN_POINT('',(0.,1.25979416228288E-19,-0.0039624));
#471=CARTESIAN_POINT('',(0.0026924,1.25979416228288E-19,-0.0039624));
#472=CARTESIAN_POINT('',(0.,1.55530143491714E-18,-0.0039624));
#473=CARTESIAN_POINT('',(0.024765,1.55530143491714E-18,-0.0039624));
#474=CARTESIAN_POINT('',(0.,1.55530143491714E-18,0.0039624));
#475=CARTESIAN_POINT('',(0.,1.55530143491714E-18,-0.0033274));
#476=CARTESIAN_POINT('',(0.0254,1.55530143491714E-18,-0.0033274));
#477=CARTESIAN_POINT('',(0.,1.55530143491714E-18,-0.003048));
#478=CARTESIAN_POINT('',(0.0254,1.55530143491714E-18,-0.003048));
#479=CARTESIAN_POINT('',(0.,1.55530143491714E-18,0.0039624));
#480=CARTESIAN_POINT('',(0.,1.55530143491714E-18,0.0033274));
#481=CARTESIAN_POINT('',(0.0254,1.55530143491714E-18,0.0033274));
#482=CARTESIAN_POINT('',(0.,1.55530143491714E-18,0.003048));
#483=CARTESIAN_POINT('',(0.0254,1.55530143491714E-18,0.003048));
#484=CARTESIAN_POINT('',(0.,0.,0.0039624));
#485=CARTESIAN_POINT('',(0.,2.17742200888399E-18,0.0039624));
#486=CARTESIAN_POINT('',(0.010795,2.17742200888399E-18,0.0039624));
#487=CARTESIAN_POINT('',(0.,1.55530143491714E-18,0.0039624));
#488=CARTESIAN_POINT('',(0.024765,1.55530143491714E-18,0.0039624));
#489=CARTESIAN_POINT('',(0.,2.17742200888399E-18,0.0108204));
#490=CARTESIAN_POINT('',(-0.00209036629320558,0.0099865005886647,0.00532353993320293));
#491=CARTESIAN_POINT('',(-2.90736791544672E-07,0.0102467945783326,0.00451979599941114));
#492=CARTESIAN_POINT('',(0.00209152924037176,0.009986321098005,0.0053246760691525));
#493=CARTESIAN_POINT('',(0.00301191149369429,0.0096967236926806,0.00739034628058985));
#494=CARTESIAN_POINT('',(0.00209043503449638,0.00998664586651335,0.00946028727006202));
#495=CARTESIAN_POINT('',(-1.74159307943203E-06,0.010246602359264,0.0102619695422133));
#496=CARTESIAN_POINT('',(-0.00208791834647108,0.00998694453403167,0.00946123397397282));
#497=CARTESIAN_POINT('',(-0.00301283130338042,0.00969660418051107,0.00739191058179479));
#498=CARTESIAN_POINT('',(-0.00209036629320558,0.0099865005886647,0.00532353993320293));
#499=CARTESIAN_POINT('',(-2.90736791544672E-07,0.0102467945783326,0.00451979599941114));
#500=CARTESIAN_POINT('',(0.00209152924037176,0.009986321098005,0.0053246760691525));
#501=CARTESIAN_POINT('',(2.17620811777577E-19,0.01016,0.0047879));
#502=CARTESIAN_POINT('',(0.,2.17742200888399E-18,0.0045974));
#503=CARTESIAN_POINT('',(0.01016,2.17742200888399E-18,0.0045974));
#504=CARTESIAN_POINT('',(0.,2.17742200888399E-18,0.0101854));
#505=CARTESIAN_POINT('',(0.01016,2.17742200888399E-18,0.0101854));
#506=CARTESIAN_POINT('',(0.,0.,0.0108204));
#507=CARTESIAN_POINT('',(0.,1.25979416228288E-19,0.0108204));
#508=CARTESIAN_POINT('',(0.0026924,1.25979416228288E-19,0.0108204));
#509=CARTESIAN_POINT('',(0.,2.17742200888399E-18,0.0108204));
#510=CARTESIAN_POINT('',(0.009525,2.17742200888399E-18,0.0108204));
#511=CARTESIAN_POINT('',(0.,0.010414,0.0073914));
#512=CARTESIAN_POINT('',(0.00174394451962997,0.00960519467773713,0.00565233175780651));
#513=CARTESIAN_POINT('',(-2.29967001455066E-07,0.00986586123418348,0.00492741555881511));
#514=CARTESIAN_POINT('',(-0.00174302465162415,0.00960536038552893,0.00565140600693306));
#515=CARTESIAN_POINT('',(-0.00246279302845222,0.00933629438545834,0.00739194779612494));
#516=CARTESIAN_POINT('',(-0.0017408026311056,0.00960582915084884,0.00913321458056384));
#517=CARTESIAN_POINT('',(-1.65727549790907E-06,0.00986566182774191,0.00985447063328869));
#518=CARTESIAN_POINT('',(0.00174306056912165,0.00960552331474908,0.00913230216985564));
#519=CARTESIAN_POINT('',(0.00246199871705107,0.00933641222610025,0.0073906736577937));
#520=CARTESIAN_POINT('',(0.00174394451962997,0.00960519467773713,0.00565233175780651));
#521=CARTESIAN_POINT('',(-2.29967001455066E-07,0.00986586123418348,0.00492741555881511));
#522=CARTESIAN_POINT('',(-0.00174302465162415,0.00960536038552893,0.00565140600693306));
#523=CARTESIAN_POINT('',(-2.68006900149642E-20,0.009779,0.0051689));
#524=CARTESIAN_POINT('',(0.0020574,0.,0.00823200186176334));
#525=CARTESIAN_POINT('',(0.0020574,0.000302570507682814,0.00823200186176334));
#526=CARTESIAN_POINT('',(0.00192984813714,0.000831100916370381,0.00854649078361557));
#527=CARTESIAN_POINT('',(0.0015316488471251,0.00143904950333351,0.00905150729606614));
#528=CARTESIAN_POINT('',(0.000887777420770925,0.00192064577050238,0.00948643798714838));
#529=CARTESIAN_POINT('',(5.20480738486511E-06,0.00212544883319869,0.00967732646200981));
#530=CARTESIAN_POINT('',(-0.000886439679706552,0.00192193901190729,0.00948763775717518));
#531=CARTESIAN_POINT('',(-0.00152788485634393,0.00144268867842418,0.00905474941887775));
#532=CARTESIAN_POINT('',(-0.00193011747649743,0.000832170073307081,0.00854688023700616));
#533=CARTESIAN_POINT('',(-0.00205740000000001,0.000302100589261228,0.0082320018617635));
#534=CARTESIAN_POINT('',(-0.0020574,-5.71603362702833E-17,0.00823200186176352));
#535=CARTESIAN_POINT('',(-0.0020574,0.,0.00823200186176335));
#536=CARTESIAN_POINT('',(0.,0.,0.0073914));
#537=CARTESIAN_POINT('',(-0.0020574,0.,0.00655079813823666));
#538=CARTESIAN_POINT('',(-0.0020574,0.,0.00655079813823666));
#539=CARTESIAN_POINT('',(-0.0020574,0.000302570507682812,0.00655079813823666));
#540=CARTESIAN_POINT('',(-0.00192984813714,0.000831100916370379,0.00623630921638443));
#541=CARTESIAN_POINT('',(-0.0015316488471251,0.00143904950333351,0.00573129270393387));
#542=CARTESIAN_POINT('',(-0.000887777420770925,0.00192064577050238,0.00529636201285161));
#543=CARTESIAN_POINT('',(-5.2048073848689E-06,0.00212544883319868,0.0051054735379902));
#544=CARTESIAN_POINT('',(0.000886439679706556,0.00192193901190729,0.00529516224282482));
#545=CARTESIAN_POINT('',(0.00152788485634394,0.00144268867842417,0.00572805058112225));
#546=CARTESIAN_POINT('',(0.00193011747649743,0.000832170073307081,0.00623591976299384));
#547=CARTESIAN_POINT('',(0.00205740000000001,0.000302100589261228,0.0065507981382365));
#548=CARTESIAN_POINT('',(0.0020574,-5.74812137695112E-17,0.00655079813823648));
#549=CARTESIAN_POINT('',(0.,0.,0.0073914));
#550=CARTESIAN_POINT('',(-0.0020574,0.,-0.0127));
#551=CARTESIAN_POINT('',(0.,1.25979416228288E-19,-0.0127));
#552=CARTESIAN_POINT('',(0.,1.25979416228288E-19,-0.0033274));
#553=CARTESIAN_POINT('',(0.0020574,1.25979416228288E-19,-0.0033274));
#554=CARTESIAN_POINT('',(0.,1.25979416228288E-19,0.0101854));
#555=CARTESIAN_POINT('',(0.0020574,1.25979416228288E-19,0.0101854));
#556=CARTESIAN_POINT('',(0.,1.25979416228288E-19,-0.0033274));
#557=CARTESIAN_POINT('',(0.,1.25979416228288E-19,0.0101854));
#558=CARTESIAN_POINT('',(0.,2.17742200888399E-18,0.0045974));
#559=CARTESIAN_POINT('',(0.,2.17742200888399E-18,0.0101854));
#560=CARTESIAN_POINT('',(0.,1.55530143491714E-18,-0.0033274));
#561=CARTESIAN_POINT('',(0.,1.55530143491714E-18,0.0033274));
#562=CARTESIAN_POINT('',(0.,1.55530143491714E-18,0.003048));
#563=CARTESIAN_POINT('',(0.,1.55530143491714E-18,-0.003048));
#564=CARTESIAN_POINT('',(0.,1.71083157840886E-18,-0.001778));
#565=CARTESIAN_POINT('',(0.,1.71083157840886E-18,0.001778));
#566=CARTESIAN_POINT('',(-0.0005984838177721,0.00975383649494897,0.00525099738136375));
#567=CARTESIAN_POINT('',(-0.000624316677672818,0.0101413370485816,0.00525822057782349));
#568=CARTESIAN_POINT('',(-0.00072839588953339,0.0101338560986483,0.00488407121816896));
#569=CARTESIAN_POINT('',(-0.000318020706671502,0.00977809462778026,0.00517224355894781));
#570=CARTESIAN_POINT('',(-0.000341442409577523,0.0101578260390905,0.00517463358906976));
#571=CARTESIAN_POINT('',(-0.000387053030754185,0.0101590593535379,0.00479181674048172));
#572=CARTESIAN_POINT('',(0.00027775336196315,0.00979181146576231,0.00512776837783106));
#573=CARTESIAN_POINT('',(0.000296805605854606,0.0101708525303787,0.00512091034723914));
#574=CARTESIAN_POINT('',(0.000338044908066468,0.010173310613779,0.0047397172426021));
#575=CARTESIAN_POINT('',(0.00140626257146316,0.00967586209317409,0.00549943845761297));
#576=CARTESIAN_POINT('',(0.00150251175132676,0.0100761258139241,0.00555691615470129));
#577=CARTESIAN_POINT('',(0.001711518083265,0.0100528437331679,0.00517510219320377));
#578=CARTESIAN_POINT('',(0.00237127768994415,0.00937713502482665,0.00672186318602883));
#579=CARTESIAN_POINT('',(0.00236788054149771,0.00989304562370429,0.00684069130337234));
#580=CARTESIAN_POINT('',(0.00288600772653685,0.00974247794787184,0.00660708544649092));
#581=CARTESIAN_POINT('',(0.00214213727941306,0.00946902908334876,0.00860827364515487));
#582=CARTESIAN_POINT('',(0.00220908614491061,0.00993808826193962,0.00843908825062046));
#583=CARTESIAN_POINT('',(0.00260712811743036,0.00983795229438832,0.00881688055575285));
#584=CARTESIAN_POINT('',(0.000913511865740679,0.00976435574338509,0.0095658783168019));
#585=CARTESIAN_POINT('',(0.000985722112700686,0.0101446500478329,0.00955370079497567));
#586=CARTESIAN_POINT('',(0.00111180664921315,0.0101447851879326,0.00993864602825365));
#587=CARTESIAN_POINT('',(-0.000277038154888332,0.00979184150353147,0.00965509967369338));
#588=CARTESIAN_POINT('',(-0.000296060209375425,0.0101708769410354,0.00966198239892027));
#589=CARTESIAN_POINT('',(-0.000337174451960567,0.0101733418218509,0.010043162474898));
#590=CARTESIAN_POINT('',(-0.00140686503639048,0.00967583285937551,0.00928357249330715));
#591=CARTESIAN_POINT('',(-0.00150320722514471,0.010076091853763,0.00922598317497386));
#592=CARTESIAN_POINT('',(-0.00171225132443814,0.0100528133603901,0.00960794492073123));
#593=CARTESIAN_POINT('',(-0.00237210531143853,0.00937683370320369,0.00805718506002868));
#594=CARTESIAN_POINT('',(-0.00236860327347043,0.00989286940886278,0.00793841229581894));
#595=CARTESIAN_POINT('',(-0.00288701499870811,0.00974216488644539,0.00817131964174788));
#596=CARTESIAN_POINT('',(-0.00214187109864185,0.00946908998723903,0.00617565017071991));
#597=CARTESIAN_POINT('',(-0.00220885491732808,0.00993811535378214,0.0063448540139735));
#598=CARTESIAN_POINT('',(-0.00260680415715965,0.00983801557115743,0.00596723591427189));
#599=CARTESIAN_POINT('',(-0.00115941003997329,0.00970532022928638,0.00540850502619562));
#600=CARTESIAN_POINT('',(-0.00120672233270304,0.0101073881094193,0.00543031659512797));
#601=CARTESIAN_POINT('',(-0.0014110816070918,0.010083449588869,0.00506858017354344));
#602=CARTESIAN_POINT('',(-0.0005984838177721,0.00975383649494897,0.00525099738136375));
#603=CARTESIAN_POINT('',(-0.000624316677672818,0.0101413370485816,0.00525822057782349));
#604=CARTESIAN_POINT('',(-0.00072839588953339,0.0101338560986483,0.00488407121816896));
#605=MECHANICAL_DESIGN_GEOMETRIC_PRESENTATION_REPRESENTATION('',(#297),#606);
#606=(
GEOMETRIC_REPRESENTATION_CONTEXT(3)
GLOBAL_UNCERTAINTY_ASSIGNED_CONTEXT((#607))
GLOBAL_UNIT_ASSIGNED_CONTEXT((#610,#609,#608))
REPRESENTATION_CONTEXT('Part 1','TOP_LEVEL_ASSEMBLY_PART')
);
#607=UNCERTAINTY_MEASURE_WITH_UNIT(LENGTH_MEASURE(2.E-05),#610,'DISTANCE_ACCURACY_VALUE','Maximum Tolerance applied to model');
#608=(
NAMED_UNIT(*)
SI_UNIT($,.STERADIAN.)
SOLID_ANGLE_UNIT()
);
#609=(
NAMED_UNIT(*)
PLANE_ANGLE_UNIT()
SI_UNIT($,.RADIAN.)
);
#610=(
LENGTH_UNIT()
NAMED_UNIT(*)
SI_UNIT($,.METRE.)
);
#611=PRODUCT_DEFINITION_SHAPE('','',#612);
#612=PRODUCT_DEFINITION('','',#614,#613);
#613=PRODUCT_DEFINITION_CONTEXT('',#620,'design');
#614=PRODUCT_DEFINITION_FORMATION_WITH_SPECIFIED_SOURCE('','',#616,.NOT_KNOWN.);
#615=PRODUCT_RELATED_PRODUCT_CATEGORY('','',(#616));
#616=PRODUCT('Part 1','Part 1','Part 1',(#618));
#617=PRODUCT_CATEGORY('','');
#618=PRODUCT_CONTEXT('',#620,'mechanical');
#619=APPLICATION_PROTOCOL_DEFINITION('international standard','ap242_managed_model_based_3d_engineering',2020,#620);
#620=APPLICATION_CONTEXT('managed model based 3d engineering');
ENDSEC;
END-ISO-10303-21;
